<?xml version="1.0" encoding="UTF-8" standalone="no"?>
<svg
   id="Layer_1"
   data-name="Layer 1"
   viewBox="0 0 1963.594 1095.657"
   version="1.1"
   sodipodi:docname="INCOSE_Logo_Inverted.svg"
   inkscape:version="1.2.2 (b0a84865, 2022-12-01)"
   xmlns:inkscape="http://www.inkscape.org/namespaces/inkscape"
   xmlns:sodipodi="http://sodipodi.sourceforge.net/DTD/sodipodi-0.dtd"
   xmlns="http://www.w3.org/2000/svg"
   xmlns:svg="http://www.w3.org/2000/svg">
  <defs
     id="defs1081" />
  <sodipodi:namedview
     id="namedview1079"
     pagecolor="#ffffff"
     bordercolor="#000000"
     borderopacity="0.25"
     inkscape:showpageshadow="2"
     inkscape:pageopacity="0.0"
     inkscape:pagecheckerboard="0"
     inkscape:deskcolor="#d1d1d1"
     showgrid="false"
     inkscape:zoom="0.12166446"
     inkscape:cx="1220.5701"
     inkscape:cy="715.08149"
     inkscape:window-width="1309"
     inkscape:window-height="456"
     inkscape:window-x="217"
     inkscape:window-y="112"
     inkscape:window-maximized="0"
     inkscape:current-layer="Layer_1" />
  <path
     d="M761.389,139.781c4.015.401,8.03.792,12.048,1.168,50.437-68.445,107.372-109.272,165.531-116.573-24.64.81-49.188,3.645-73.518,8.41-36.606,23.205-71.779,59.097-104.061,106.995Z"
     fill="#fff"
     stroke="#fff"
     stroke-miterlimit="10"
     id="path740"
     style="fill:#2b6fab;fill-opacity:1" />
  <path
     d="M773.672,141.473l-.281-.026c-4.019-.376-8.036-.768-12.051-1.168l-.833-.083.468-.694c32.073-47.59,67.134-83.637,104.208-107.139l.171-.068c24.423-4.784,49.186-7.616,73.598-8.419l.079.996c-57.265,7.189-114.387,47.431-165.191,116.374l-.167.228ZM762.272,139.366c3.643.362,7.286.717,10.93,1.058,48.299-65.466,102.322-105.091,156.8-115.163-21.406,1.136-43.014,3.819-64.364,7.997-36.746,23.314-71.521,59.012-103.366,106.108Z"
     fill="#fff"
     stroke="#fff"
     stroke-miterlimit="10"
     id="path742"
     style="fill:#2b6fab;fill-opacity:1" />
  <path
     d="M1250.635,332.407c20.004,55.456,35.571,111.789,48.436,171.5.899-.135,1.797-.272,2.696-.408-12.059-61.375-27.219-119.134-44.919-171.721-2.071.206-4.141.429-6.214.629Z"
     fill="#fff"
     stroke="#fff"
     stroke-miterlimit="10"
     id="path744"
     style="fill:#2b6fab;fill-opacity:1" />
  <path
     d="M1298.682,504.471l-.1-.458c-13.396-62.179-29.234-118.256-48.417-171.436l-.218-.605.641-.062c1.208-.117,2.417-.241,3.625-.366l2.982-.303.127.377c17.83,52.974,32.948,110.771,44.936,171.784l.102.513-3.678.556ZM1251.324,332.842c19.053,52.913,34.802,108.694,48.137,170.5l1.715-.26c-11.935-60.637-26.963-118.086-44.674-170.767l-2.187.223c-.997.103-1.994.205-2.991.303Z"
     fill="#fff"
     stroke="#fff"
     stroke-miterlimit="10"
     id="path746"
     style="fill:#2b6fab;fill-opacity:1" />
  <path
     d="M679.284,322.182c25.714-68.928,55.891-127.537,89-174.119-3.927-.294-7.853-.596-11.777-.914-30.765,47.241-58.785,105.56-82.76,174.345,1.846.23,3.691.462,5.538.688Z"
     fill="#fff"
     stroke="#fff"
     stroke-miterlimit="10"
     id="path748"
     style="fill:#2b6fab;fill-opacity:1" />
  <path
     d="M679.614,322.726l-.391-.048c-1.388-.169-2.776-.342-4.164-.516l-1.989-.249.204-.584c23.533-67.516,51.396-126.211,82.813-174.454l.163-.25.297.024c3.923.319,7.849.62,11.774.915l.883.066-.513.722c-33.554,47.208-63.477,105.751-88.939,174.004l-.138.369ZM674.422,321.075l.762.095c1.256.157,2.513.313,3.77.468,25.333-67.828,55.075-126.076,88.411-173.143-3.535-.266-7.068-.538-10.601-.824-31.218,47.99-58.917,106.323-82.341,173.404Z"
     fill="#fff"
     stroke="#fff"
     stroke-miterlimit="10"
     id="path750"
     style="fill:#2b6fab;fill-opacity:1" />
  <path
     d="M1152.112,141.808c5.155-.456,10.308-.931,15.459-1.427-30.259-46.177-62.599-80.504-95.949-103.483-29.102-6.72-58.485-10.801-87.91-12.156,58.719,7.887,116.834,48.176,168.4,117.067Z"
     fill="#fff"
     stroke="#fff"
     stroke-miterlimit="10"
     id="path752"
     style="fill:#2b6fab;fill-opacity:1" />
  <path
     d="M1151.879,142.33l-.167-.223c-51.337-68.585-109.454-108.999-168.066-116.871l.09-.995c29.259,1.348,58.866,5.442,87.999,12.169l.172.076c34.096,23.494,66.424,58.357,96.083,103.621l.454.692-.824.079c-5.151.497-10.307.971-15.463,1.427l-.277.024ZM993.08,25.767c55.648,10.726,110.519,50.472,159.266,115.519,4.786-.424,9.571-.864,14.353-1.323-29.44-44.782-61.496-79.299-95.281-102.599-25.933-5.983-52.236-9.875-78.337-11.597Z"
     fill="#fff"
     stroke="#fff"
     stroke-miterlimit="10"
     id="path754"
     style="fill:#2b6fab;fill-opacity:1" />
  <path
     d="M626.169,510.216c-.74-.105-1.48-.21-2.22-.316-8.146,42.096-15.052,86.615-20.564,133.481h1.052c5.507-44.472,12.88-90.289,21.732-133.166Z"
     fill="#fff"
     stroke="#fff"
     stroke-miterlimit="10"
     id="path756"
     style="fill:#2b6fab;fill-opacity:1" />
  <path
     d="M604.878,643.881h-2.056l.065-.559c5.417-46.054,12.337-90.976,20.57-133.518l.09-.467,3.218.458-.107.521c-8.566,41.487-16.079,87.521-21.726,133.126l-.054.438ZM603.947,642.881h.047c5.621-45.296,13.078-91.001,21.577-132.246l-1.223-.174c-8.155,42.208-15.018,86.753-20.402,132.419Z"
     fill="#fff"
     stroke="#fff"
     stroke-miterlimit="10"
     id="path758"
     style="fill:#2b6fab;fill-opacity:1" />
  <path
     d="M1322.69,643.381h.33c-4.947-45.142-11.547-89.116-19.621-131.427-.849.115-1.699.232-2.548.346,8.774,42.057,16.109,85.926,21.839,131.081Z"
     fill="#fff"
     stroke="#fff"
     stroke-miterlimit="10"
     id="path760"
     style="fill:#2b6fab;fill-opacity:1" />
  <path
     d="M1323.577,643.881h-1.328l-.056-.437c-5.672-44.704-13.018-88.793-21.832-131.042l-.11-.526,3.551-.481.089.465c8.137,42.647,14.74,86.879,19.626,131.466l.061.555ZM1301.449,512.724c6.176,29.653,11.629,60.208,16.288,91.242-4.119-30.976-9.055-61.604-14.74-91.452l-1.548.21Z"
     fill="#fff"
     stroke="#fff"
     stroke-miterlimit="10"
     id="path762"
     style="fill:#2b6fab;fill-opacity:1" />
  <path
     d="M670.68,330.407c-17.41,51.348-32.591,108.37-45.027,170.815.773.123,1.546.244,2.319.366,13.15-62.001,29.384-119.109,48.087-170.634-1.793-.182-3.586-.361-5.379-.547Z"
     fill="#fff"
     stroke="#fff"
     stroke-miterlimit="10"
     id="path764"
     style="fill:#2b6fab;fill-opacity:1" />
  <path
     d="M628.363,502.156l-3.301-.521.102-.51c12.177-61.149,27.332-118.641,45.043-170.878l.128-.378.397.041c1.351.141,2.702.277,4.053.414l1.963.199-.219.603c-18.982,52.292-35.154,109.68-48.068,170.567l-.099.464ZM626.246,500.81l1.336.21c12.857-60.524,28.935-117.594,47.789-169.633l-.686-.069c-1.22-.124-2.439-.247-3.659-.373-17.592,51.948-32.658,109.099-44.779,169.864Z"
     fill="#fff"
     stroke="#fff"
     stroke-miterlimit="10"
     id="path766"
     style="fill:#2b6fab;fill-opacity:1" />
  <path
     d="M1247.55,323.995c2.128-.245,4.255-.5,6.382-.751-20.51-60.301-51.091-127.843-80.83-174.25-5,.35-10.002.677-15.006.989,33.239,46.302,63.607,104.646,89.453,174.012Z"
     fill="#fff"
     stroke="#fff"
     stroke-miterlimit="10"
     id="path768"
     style="fill:#2b6fab;fill-opacity:1" />
  <path
     d="M1247.218,324.536l-.137-.367c-25.383-68.121-55.458-126.627-89.391-173.895l-.527-.734.902-.056c5.002-.312,10.004-.64,15.002-.989l.296-.021.16.25c28.365,44.265,59.357,111.076,80.882,174.359l.198.585-2.13.252c-1.622.192-3.244.384-4.866.571l-.39.045ZM1159.029,150.425c33.708,47.126,63.599,105.332,88.853,173.028,1.491-.173,2.982-.35,4.474-.526l.903-.107c-21.45-62.917-52.225-129.241-80.417-173.307-4.604.321-9.208.624-13.812.913Z"
     fill="#fff"
     stroke="#fff"
     stroke-miterlimit="10"
     id="path770"
     style="fill:#2b6fab;fill-opacity:1" />
  <path
     d="M655.493,125.91c65.702-47.001,136.839-78.803,209.956-93.124,3.193-2.024,6.396-3.952,9.609-5.782-36.212,3.323-72.156,8.793-107.618,16.314-46.037,19.638-90.609,46.062-132.761,79.007,6.929,1.244,13.867,2.441,20.813,3.586Z"
     fill="#fff"
     stroke="#fff"
     stroke-miterlimit="10"
     id="path772"
     style="fill:#2b6fab;fill-opacity:1" />
  <path
     d="M655.616,126.437l-.204-.034c-6.822-1.124-13.827-2.331-20.82-3.587l-1.1-.198.88-.688c41.854-32.712,86.559-59.316,132.873-79.073,35.626-7.564,71.854-13.056,107.769-16.352l2.301-.211-2.007,1.144c-3.191,1.818-6.418,3.759-9.589,5.77l-.171.068c-72.825,14.264-143.399,45.567-209.762,93.041l-.168.12ZM635.871,122.029c6.552,1.172,13.105,2.299,19.5,3.354,66.402-47.468,137.02-78.782,209.891-93.07,2.502-1.585,5.039-3.126,7.565-4.599-35.129,3.313-70.538,8.725-105.282,16.093-45.817,19.555-90.142,45.878-131.674,78.223Z"
     fill="#fff"
     stroke="#fff"
     stroke-miterlimit="10"
     id="path774"
     style="fill:#2b6fab;fill-opacity:1" />
  <path
     d="M962.938,1.482c-6.16.064-12.316.251-18.469.547,4.404-.15,8.809-.272,13.215-.362,1.751-.088,3.502-.153,5.254-.185Z"
     fill="#fff"
     stroke="#fff"
     stroke-miterlimit="10"
     id="path776"
     style="fill:#2b6fab;fill-opacity:1" />
  <path
     d="M944.486,2.529l-.041-.999c6.25-.301,12.47-.485,18.488-.548l.015,1c-1.646.03-3.358.09-5.238.185-4.338.089-8.782.211-13.224.362Z"
     fill="#fff"
     stroke="#fff"
     stroke-miterlimit="10"
     id="path778"
     style="fill:#2b6fab;fill-opacity:1" />
  <path
     d="M1435.383,292.695c4.091-.924,8.178-1.866,12.26-2.833-41.919-62.382-88.144-114.239-137.262-155.961-8.76,1.35-17.531,2.62-26.313,3.814,55.143,41.224,106.326,93.168,151.315,154.98Z"
     fill="#fff"
     stroke="#fff"
     stroke-miterlimit="10"
     id="path780"
     style="fill:#2b6fab;fill-opacity:1" />
  <path
     d="M1435.172,293.254l-.193-.266c-44.316-60.888-95.191-112.995-151.211-154.874l-.978-.731,1.21-.165c8.785-1.194,17.636-2.477,26.305-3.812l.226-.035.174.148c50.219,42.655,96.432,95.163,137.354,156.062l.402.599-.702.167c-3.828.908-7.84,1.835-12.266,2.835l-.321.072ZM1285.343,138.045c55.633,41.752,106.179,93.589,150.251,154.089,4.026-.911,7.712-1.761,11.231-2.594-40.724-60.498-86.679-112.682-136.594-155.111-8.206,1.264-16.57,2.479-24.889,3.616Z"
     fill="#fff"
     stroke="#fff"
     stroke-miterlimit="10"
     id="path782"
     style="fill:#2b6fab;fill-opacity:1" />
  <path
     d="M983.712,24.741c-1.333-.179-2.667-.357-4.001-.503-.001.117-.003.236-.004.355,1.335.05,2.67.086,4.005.148Z"
     fill="#fff"
     stroke="#fff"
     stroke-miterlimit="10"
     id="path784"
     style="fill:#2b6fab;fill-opacity:1" />
  <path
     d="M983.688,25.24c-.854-.04-1.71-.068-2.564-.097l-1.92-.069.017-1.393.546.06c1.338.146,2.675.325,4.012.504l-.09.995Z"
     fill="#fff"
     stroke="#fff"
     stroke-miterlimit="10"
     id="path786"
     style="fill:#2b6fab;fill-opacity:1" />
  <path
     d="M644.053,134.29c-6.789-1.021-13.573-2.074-20.347-3.191-51.602,42.152-99.374,94.24-141.501,155.773,3.534.883,7.073,1.75,10.617,2.596,44.949-61.634,96.062-113.823,151.232-155.178Z"
     fill="#fff"
     stroke="#fff"
     stroke-miterlimit="10"
     id="path788"
     style="fill:#2b6fab;fill-opacity:1" />
  <path
     d="M493.029,290.031l-.324-.077c-3.545-.847-7.086-1.713-10.622-2.598l-.698-.174.406-.593c41.447-60.54,89.087-112.984,141.597-155.878l.175-.143.223.037c6.126,1.01,12.779,2.053,20.34,3.189l1.182.178-.957.717c-55.672,41.733-106.519,93.907-151.127,155.073l-.196.269ZM483.024,286.561c3.192.796,6.389,1.578,9.59,2.344,44.363-60.779,94.889-112.688,150.185-154.298-6.99-1.055-13.203-2.031-18.951-2.978-52.195,42.666-99.572,94.79-140.823,154.932Z"
     fill="#fff"
     stroke="#fff"
     stroke-miterlimit="10"
     id="path790"
     style="fill:#2b6fab;fill-opacity:1" />
  <path
     d="M971.918,1.477c-1.728-.014-3.455-.019-5.183-.014.881.005,1.762.014,2.643.033.847-.007,1.693-.013,2.54-.018Z"
     fill="#fff"
     stroke="#fff"
     stroke-miterlimit="10"
     id="path792"
     style="fill:#2b6fab;fill-opacity:1" />
  <path
     d="M969.382,1.995c-.894-.019-1.772-.028-2.65-.033V.962c1.73-.002,3.459,0,5.189.014v1s-2.54.019-2.54.019Z"
     fill="#fff"
     stroke="#fff"
     stroke-miterlimit="10"
     id="path794"
     style="fill:#2b6fab;fill-opacity:1" />
  <path
     d="M962.146,24.215c-.003-.324-.006-.645-.008-.957-7.744-.231-15.465.146-23.17,1.117,7.718-.254,15.446-.305,23.179-.16Z"
     fill="#fff"
     stroke="#fff"
     stroke-miterlimit="10"
     id="path796"
     style="fill:#2b6fab;fill-opacity:1" />
  <path
     d="M938.984,24.875l-.079-.996c7.724-.973,15.547-1.349,23.248-1.121l.481.015.016,1.877-.513.065c-7.727-.145-15.517-.091-23.153.159Z"
     fill="#fff"
     stroke="#fff"
     stroke-miterlimit="10"
     id="path798"
     style="fill:#2b6fab;fill-opacity:1" />
  <path
     d="M1270.075,127.526c9.059-1.422,18.104-2.925,27.134-4.511-41.277-33.209-84.466-59.429-128.754-78.885-36.961-7.763-74.362-13.403-111.948-16.837,5.059,2.945,10.099,6.148,15.116,9.605,68.773,15.88,135.973,46.49,198.452,90.628Z"
     fill="#fff"
     stroke="#fff"
     stroke-miterlimit="10"
     id="path800"
     style="fill:#2b6fab;fill-opacity:1" />
  <path
     d="M1269.951,128.051l-.165-.117c-62.465-44.128-129.175-74.593-198.276-90.549l-.172-.076c-4.982-3.434-10.058-6.659-15.083-9.584l-1.95-1.135,2.248.205c37.343,3.412,75.026,9.079,112.004,16.846l.099.031c44.918,19.732,88.275,46.296,128.866,78.954l.859.691-1.086.191c-8.928,1.568-18.06,3.086-27.144,4.512l-.2.031ZM1071.827,36.432c69.139,15.977,135.872,46.445,198.37,90.568,8.644-1.358,17.327-2.799,25.837-4.287-40.26-32.274-83.231-58.549-127.733-78.105-36.188-7.598-73.057-13.186-109.613-16.611,4.387,2.614,8.798,5.445,13.14,8.435Z"
     fill="#fff"
     stroke="#fff"
     stroke-miterlimit="10"
     id="path802"
     style="fill:#2b6fab;fill-opacity:1" />
  <path
     d="M389.755,459.933c-19.339,47.255-35.979,97.917-49.498,151.871.811.268,1.624.53,2.435.797,14.041-53.348,31.623-103.841,52.246-151.152-1.729-.5-3.455-1.011-5.183-1.516Z"
     fill="#fff"
     stroke="#fff"
     stroke-miterlimit="10"
     id="path804"
     style="fill:#2b6fab;fill-opacity:1" />
  <path
     d="M343.04,613.242l-3.381-1.11.113-.45c13.266-52.943,29.927-104.063,49.521-151.939l.171-.417,1.911.561c1.233.363,2.467.725,3.702,1.082l.547.158-.228.522c-20.864,47.864-38.434,98.694-52.221,151.08l-.135.514ZM340.854,611.474l1.489.487c13.73-52.066,31.191-102.585,51.909-150.19-1.054-.306-2.107-.615-3.16-.925l-1.045-.307c-19.445,47.573-35.995,98.354-49.192,150.934Z"
     fill="#fff"
     stroke="#fff"
     stroke-miterlimit="10"
     id="path806"
     style="fill:#2b6fab;fill-opacity:1" />
  <path
     d="M1587.618,623.324c1.737,6.655,3.419,13.341,5.041,20.058h1.392c-1.468-6.913-2.984-13.803-4.577-20.656-.619.198-1.236.401-1.855.598Z"
     fill="#fff"
     stroke="#fff"
     stroke-miterlimit="10"
     id="path808"
     style="fill:#2b6fab;fill-opacity:1" />
  <path
     d="M1594.667,643.881h-2.402l-.093-.383c-1.597-6.612-3.292-13.357-5.038-20.048l-.12-.459,2.823-.907.123.528c1.489,6.41,2.987,13.17,4.579,20.665l.128.604ZM1593.052,642.881h.381c-1.499-7.043-2.916-13.439-4.324-19.513l-.888.286c1.672,6.418,3.297,12.882,4.831,19.227Z"
     fill="#fff"
     stroke="#fff"
     stroke-miterlimit="10"
     id="path810"
     style="fill:#2b6fab;fill-opacity:1" />
  <path
     d="M337.326,623.754c-1.558,6.496-3.073,13.038-4.541,19.627h2.189c1.495-6.326,3.043-12.625,4.64-18.897-.764-.241-1.525-.488-2.289-.731Z"
     fill="#fff"
     stroke="#fff"
     stroke-miterlimit="10"
     id="path812"
     style="fill:#2b6fab;fill-opacity:1" />
  <path
     d="M335.37,643.881h-3.208l.136-.609c1.452-6.516,2.98-13.123,4.542-19.635l.125-.522,3.251,1.036-.117.458c-1.595,6.259-3.156,12.614-4.638,18.888l-.091.385ZM333.41,642.881h1.169c1.421-6.002,2.912-12.075,4.436-18.063l-1.328-.424c-1.469,6.135-2.906,12.348-4.277,18.487Z"
     fill="#fff"
     stroke="#fff"
     stroke-miterlimit="10"
     id="path814"
     style="fill:#2b6fab;fill-opacity:1" />
  <path
     d="M1539.353,463.676c-2.051.58-4.102,1.156-6.155,1.728,20.144,46.154,37.331,95.019,51.193,145.817.72-.239,1.44-.478,2.16-.718-12.457-50.953-28.329-100.137-47.198-146.827Z"
     fill="#fff"
     stroke="#fff"
     stroke-miterlimit="10"
     id="path816"
     style="fill:#2b6fab;fill-opacity:1" />
  <path
     d="M1584.048,611.862l-.139-.509c-13.778-50.489-30.994-99.526-51.169-145.749l-.23-.528.555-.154c2.052-.571,4.103-1.146,6.153-1.727l.432-.123.168.416c18.991,46.996,34.878,96.418,47.219,146.896l.109.447-3.098,1.03ZM1533.887,465.731c20.027,45.958,37.132,94.685,50.848,144.849l1.221-.406c-12.277-50.129-28.053-99.205-46.897-145.895-1.723.487-3.446.971-5.171,1.452Z"
     fill="#fff"
     stroke="#fff"
     stroke-miterlimit="10"
     id="path818"
     style="fill:#2b6fab;fill-opacity:1" />
  <path
     d="M1510.269,416.555c6.187,12.274,12.15,24.785,17.892,37.506,2.15-.633,4.299-1.268,6.447-1.911-22.691-54.238-49.427-104.98-79.508-151.064-3.955.875-7.913,1.732-11.878,2.565,24.393,34.705,46.876,72.374,67.047,112.904Z"
     fill="#fff"
     stroke="#fff"
     stroke-miterlimit="10"
     id="path820"
     style="fill:#2b6fab;fill-opacity:1" />
  <path
     d="M1527.884,454.664l-.18-.397c-5.759-12.76-11.775-25.373-17.882-37.487v-.002c-19.803-39.787-42.348-77.751-67.01-112.839l-.437-.621.743-.156c3.962-.833,7.919-1.689,11.872-2.564l.338-.075.189.29c30.152,46.195,56.917,97.048,79.55,151.145l.215.513-.532.159c-2.148.643-4.299,1.279-6.449,1.912l-.418.123ZM1510.716,416.333c6.05,12,12.011,24.49,17.721,37.126,1.833-.54,3.664-1.082,5.495-1.628-22.517-53.737-49.114-104.26-79.062-150.182-3.598.795-7.198,1.575-10.804,2.335,24.521,34.956,46.942,72.75,66.649,112.348h0Z"
     fill="#fff"
     stroke="#fff"
     stroke-miterlimit="10"
     id="path822"
     style="fill:#2b6fab;fill-opacity:1" />
  <path
     d="M484.804,300.654c-3.431-.797-6.843-1.608-10.236-2.433-29.863,45.177-56.738,95.241-79.946,150.009,1.81.559,3.619,1.121,5.431,1.674,24.48-54.239,52.993-104.158,84.751-149.25Z"
     fill="#fff"
     stroke="#fff"
     stroke-miterlimit="10"
     id="path824"
     style="fill:#2b6fab;fill-opacity:1" />
  <path
     d="M400.328,450.51l-.421-.128c-1.381-.421-2.76-.847-4.14-1.274l-1.821-.563.216-.51c22.78-53.758,49.692-104.255,79.99-150.089l.194-.293.341.083c3.391.824,6.801,1.634,10.231,2.432l.723.168-.428.607c-32.109,45.589-60.607,95.776-84.705,149.167l-.181.401ZM395.298,447.916l.764.236c1.238.383,2.476.766,3.715,1.145,23.977-53.061,52.301-102.96,84.19-148.324-3.074-.717-6.134-1.444-9.176-2.183-30.088,45.56-56.832,95.73-79.494,149.125Z"
     fill="#fff"
     stroke="#fff"
     stroke-miterlimit="10"
     id="path826"
     style="fill:#2b6fab;fill-opacity:1" />
  <path
     d="M938.968,24.375c5.744-.721,11.5-1.118,17.263-1.18-27.146.055-54.232,1.336-81.171,3.808-3.213,1.83-6.417,3.758-9.609,5.782,24.33-4.765,48.878-7.6,73.518-8.41Z"
     fill="#fff"
     stroke="#fff"
     stroke-miterlimit="10"
     id="path828"
     style="fill:#2b6fab;fill-opacity:1" />
  <path
     d="M862.935,33.787l2.247-1.424c3.185-2.019,6.424-3.968,9.629-5.794l.202-.063c26.966-2.474,54.292-3.756,81.216-3.81l.006,1c-5.681.06-11.469.456-17.206,1.175l-.045.003c-24.359.802-49.067,3.628-73.438,8.401l-2.611.511ZM875.212,27.491c-2.402,1.37-4.824,2.81-7.226,4.295,22.976-4.364,46.225-7.002,69.184-7.849-20.636.48-41.401,1.67-61.958,3.554Z"
     fill="#fff"
     stroke="#fff"
     stroke-miterlimit="10"
     id="path830"
     style="fill:#2b6fab;fill-opacity:1" />
  <path
     d="M962.138,23.199c-1.485-.007-2.969-.003-4.453-.003,1.484-.001,2.969.019,4.454.062,0-.02,0-.039,0-.059Z"
     fill="#fff"
     stroke="#fff"
     stroke-miterlimit="10"
     id="path832"
     style="fill:#2b6fab;fill-opacity:1" />
  <path
     d="M962.651,23.772l-.527-.015c-1.431-.041-2.861-.062-4.292-.062h-.148v-1h.989c1.155-.002,2.311-.003,3.467.003l.498.002v.498h-.498l.499.046.013.527Z"
     fill="#fff"
     stroke="#fff"
     stroke-miterlimit="10"
     id="path834"
     style="fill:#2b6fab;fill-opacity:1" />
  <path
     d="M969.378,1.495c-3.899-.073-7.798-.033-11.694.172,3.897-.08,7.795-.138,11.694-.172Z"
     fill="#fff"
     stroke="#fff"
     stroke-miterlimit="10"
     id="path836"
     style="fill:#2b6fab;fill-opacity:1" />
  <path
     d="M957.695,2.167l-.037-1c3.707-.194,7.543-.251,11.729-.172l-.005,1c-3.81.033-7.743.091-11.688.172Z"
     fill="#fff"
     stroke="#fff"
     stroke-miterlimit="10"
     id="path838"
     style="fill:#2b6fab;fill-opacity:1" />
  <path
     d="M979.711,24.238c1.334.146,2.667.324,4.001.503,29.426,1.355,58.809,5.437,87.91,12.156-5.017-3.457-10.057-6.66-15.116-9.605-25.539-2.333-51.16-3.643-76.785-3.925-.003.285-.006.576-.01.871Z"
     fill="#fff"
     stroke="#fff"
     stroke-miterlimit="10"
     id="path840"
     style="fill:#2b6fab;fill-opacity:1" />
  <path
     d="M1074.066,37.975l-2.557-.59c-29.074-6.713-58.622-10.799-87.821-12.145-1.372-.182-2.701-.36-4.031-.505l-.45-.049.019-1.824.501.005c25.528.281,51.376,1.602,76.826,3.927l.206.066c5.047,2.938,10.144,6.177,15.147,9.625l2.16,1.489ZM980.981,23.882c.933.114,1.864.238,2.797.363,28.354,1.304,57.076,5.199,85.377,11.577-4.246-2.859-8.542-5.558-12.805-8.042-24.966-2.278-50.316-3.589-75.369-3.898Z"
     fill="#fff"
     stroke="#fff"
     stroke-miterlimit="10"
     id="path842"
     style="fill:#2b6fab;fill-opacity:1" />
  <path
     d="M108.79,592.841c6.805-18.286,14.246-36.221,22.272-53.801-.614-.318-1.232-.628-1.846-.947,0-.003,7.518-13.673,7.518-13.673.312.17.625.336.937.505,21.913-45.656,47.861-88.808,77.293-129.187-1.057-.475-2.117-.941-3.173-1.42,0-.002,6.772-14.056,6.772-14.056,1.954.923,3.916,1.826,5.875,2.739,35.701-47.097,76.186-90.274,120.508-129.106-1.595-.775-3.2-1.545-4.769-2.333,0-.001,7.463-13.701,7.463-13.701,3.315,1.751,6.658,3.443,10.014,5.107,58.976-49.761,124.376-91.997,194.082-125.742-2.325-.515-4.651-1.019-6.973-1.548,0,0,2.961-11.895,2.961-11.895,7.175,1.789,14.367,3.498,21.568,5.16,63.234-29.025,129.795-51.133,198.149-65.628,57.354-24.466,116.98-38.395,177.028-41.288C568.342,14.827,204.31,243.656,89.054,643.381h2.567c5.169-17.036,10.892-33.896,17.169-50.54Z"
     fill="#fff"
     stroke="#fff"
     stroke-miterlimit="10"
     id="path844"
     style="fill:#2b6fab;fill-opacity:1" />
  <path
     d="M91.992,643.881h-3.603l.184-.639c54.746-189.866,168.883-351.021,330.071-466.042,75.445-53.837,159.402-96.312,249.538-126.247C757.273,21.366,850.227,4.737,944.443,1.53c.003,0-.002,0,.001,0h.007l.041.999c-59.96,2.888-119.463,16.766-176.855,41.248-68.101,14.451-134.732,36.52-198.136,65.623l-.155.071-.166-.038c-7.687-1.774-14.593-3.424-21.092-5.042-.478,1.92-2.235,8.978-2.717,10.915,1.42.321,2.842.634,4.263.946l3.614.799-1.295.627c-70.101,33.936-135.364,76.218-193.978,125.674l-.25.211-.294-.146c-3.647-1.808-6.708-3.367-9.588-4.882-1.114,2.045-5.842,10.724-6.979,12.812,1.082.539,2.178,1.07,3.275,1.602l1.703.826-.567.497c-44.708,39.17-85.229,82.583-120.439,129.033l-.244.321-2.177-1.012c-1.207-.56-2.413-1.12-3.617-1.686-1.014,2.104-5.308,11.015-6.335,13.147.437.197.875.391,1.312.586l1.955.875-.363.498c-29.688,40.73-55.677,84.169-77.246,129.109l-.228.474-.961-.521c-1.125,2.047-5.89,10.711-7.031,12.787l1.812.932-.198.433c-8.07,17.677-15.559,35.767-22.258,53.769v.002c-6.225,16.504-11.997,33.498-17.159,50.509l-.108.355ZM89.719,642.881h1.532c5.14-16.913,10.883-33.807,17.071-50.216,6.652-17.876,14.083-35.839,22.086-53.398l-1.745-.898.06-.358q.015-.087,7.573-13.831l.24-.437.912.494c21.462-44.644,47.281-87.801,76.75-128.294l-.827-.37c-.596-.265-1.191-.53-1.785-.799l-.362-.164.078-.39q.013-.064,6.812-14.174l.215-.447.449.212c1.351.638,2.705,1.266,4.06,1.895l1.447.672c35.045-46.186,75.335-89.369,119.766-128.362l-.346-.168c-1.258-.609-2.515-1.219-3.75-1.839l-.387-.194.137-.411q.014-.043,7.499-13.782l.236-.434.437.231c2.923,1.543,6.015,3.122,9.708,4.955,58.251-49.115,123.055-91.153,192.641-124.97l-.804-.177c-1.589-.35-3.179-.7-4.767-1.061l-.389-.088v-.399q0-.062,2.976-12.016l.121-.485.485.121c6.588,1.643,13.587,3.318,21.394,5.12,63.425-29.099,130.072-51.166,198.099-65.592,47.041-20.075,95.561-33.035,144.606-38.654-82.973,5.565-164.713,21.582-243.446,47.729-90.041,29.903-173.908,72.333-249.272,126.112-160.827,114.764-274.754,275.492-329.507,464.867Z"
     fill="#fff"
     stroke="#fff"
     stroke-miterlimit="10"
     id="path846"
     style="fill:#2b6fab;fill-opacity:1" />
  <path
     d="M1367.683,108.78c9.157-2.106,18.296-4.306,27.411-6.617,0,0,3.769,15.137,3.769,15.137-2.902.649-5.809,1.271-8.715,1.899,69.413,33.267,134.714,74.818,193.693,124.074,3.563-1.759,7.11-3.553,10.627-5.411,0-.001,7.463,13.698,7.463,13.698-1.757.886-3.522,1.75-5.287,2.612,44.432,38.564,85.054,81.618,120.881,128.899,2.007-.934,4.017-1.861,6.02-2.806,0-.002,6.771,14.051,6.771,14.051-1.107.502-2.22.991-3.329,1.489,28.028,38.034,52.873,78.419,74.161,120.613.195-.113.393-.223.588-.336l7.789,13.516c-.496.271-.997.533-1.494.803,17.569,36.493,32.498,74.266,44.542,112.979h.799C1756.086,257.414,1349.022-11.802,971.918,1.477c66.165.529,132.498,14.52,196.537,42.653,68.488,14.384,135.45,36.075,199.229,64.651Z"
     fill="#fff"
     stroke="#fff"
     stroke-miterlimit="10"
     id="path848"
     style="fill:#2b6fab;fill-opacity:1" />
  <path
     d="M1854.013,643.881h-1.809l-.109-.352c-11.932-38.351-26.908-76.339-44.515-112.91l-.207-.429,1.461-.788-7.283-12.638-.611.353-.238-.473c-21.195-42.01-46.132-82.566-74.117-120.542l-.367-.499,2.005-.897c.474-.211.947-.422,1.421-.635-1.029-2.136-5.321-11.042-6.334-13.143-1.248.587-2.498,1.167-3.748,1.748l-2.19,1.018-.244-.322c-35.204-46.459-75.851-89.802-120.812-128.823l-.57-.495.679-.332c1.609-.786,3.219-1.573,4.821-2.377-1.138-2.09-5.866-10.77-6.979-12.812-3.101,1.632-6.444,3.332-10.203,5.187l-.292.144-.25-.208c-58.222-48.625-123.354-90.347-193.588-124.007l-1.317-.631,2.887-.624c2.252-.486,4.503-.972,6.752-1.472-.571-2.298-2.957-11.878-3.523-14.153-8.678,2.196-17.736,4.38-26.934,6.496l-.164.038-.152-.068c-63.553-28.474-130.549-50.215-199.128-64.618l-.099-.031c-63.138-27.737-129.195-42.074-196.339-42.611l-.014-1c93.048-3.276,188.356,10.331,283.306,40.442,93.318,29.595,181.689,73.63,262.659,130.884,170.507,120.567,289.831,287.823,335.991,470.956l.156.622ZM1808.688,530.617c16.933,35.222,31.427,71.75,43.116,108.651-46.867-181.239-165.524-346.652-334.517-466.148-80.886-57.194-169.164-101.185-262.385-130.748C1166.786,14.426,1078.362.706,991.707,1.535c60.447,2.93,119.865,17.066,176.9,42.116,68.577,14.406,135.57,36.141,199.128,64.604,9.307-2.142,18.469-4.354,27.235-6.576q.497-.062,1.197,2.729l3.304,13.269-.5.111c-2.418.541-4.839,1.062-7.26,1.585l-.033.007c69.71,33.539,134.371,75.013,192.231,123.301,3.809-1.883,7.189-3.605,10.324-5.261l.11-.042q.37-.102,4.294,7.094l3.978,7.302-.46.232c-1.534.774-3.074,1.53-4.615,2.284,44.682,38.848,85.098,81.961,120.139,128.158l1.459-.678c1.398-.649,2.797-1.298,4.191-1.957q.456-.2,1.723,2.431l5.936,12.317-.467.211c-.63.286-1.262.567-1.894.848l-.871.389c27.765,37.734,52.523,78.006,73.6,119.714l.562-.326,8.295,14.395-1.524.824Z"
     fill="#fff"
     stroke="#fff"
     stroke-miterlimit="10"
     id="path850"
     style="fill:#2b6fab;fill-opacity:1" />
  <path
     d="M875.059,27.004c27.032-15.397,54.766-23.933,82.625-25.336-64.89,1.172-128.619,15.466-190.244,41.65,35.463-7.52,71.406-12.991,107.618-16.314Z"
     fill="#fff"
     stroke="#fff"
     stroke-miterlimit="10"
     id="path852"
     style="fill:#2b6fab;fill-opacity:1" />
  <path
     d="M767.544,43.806l-.299-.949c62.388-26.509,126.458-40.535,190.43-41.69l.034,1c-27.688,1.395-55.412,9.897-82.403,25.271l-.202.063c-35.876,3.292-72.065,8.777-107.561,16.305ZM941.995,2.709c-56.969,2.905-113.911,16.015-169.548,39.05,33.857-6.98,68.299-12.105,102.458-15.244,22.01-12.523,44.513-20.501,67.089-23.807Z"
     fill="#fff"
     stroke="#fff"
     stroke-miterlimit="10"
     id="path854"
     style="fill:#2b6fab;fill-opacity:1" />
  <path
     d="M1056.506,27.292c37.587,3.434,74.987,9.074,111.948,16.837C1103.57,15.67,1036.507,1.603,969.378,1.495c29.215.625,58.479,9.12,87.128,25.797Z"
     fill="#fff"
     stroke="#fff"
     stroke-miterlimit="10"
     id="path856"
     style="fill:#2b6fab;fill-opacity:1" />
  <path
     d="M957.684,23.197c1.484,0,2.969-.004,4.453.003-.066-7.559-.101-11.655-.102-11.716,5.96,1.075,11.857.613,17.869.269-.038.02-.1,4.083-.183,11.615,25.625.282,51.247,1.592,76.785,3.925-28.649-16.678-57.913-25.172-87.128-25.797-3.899.034-7.797.092-11.694.172-27.859,1.403-55.593,9.939-82.625,25.336,27.418-2.513,54.999-3.804,82.625-3.807Z"
     fill="#fff"
     stroke="#fff"
     stroke-miterlimit="10"
     id="path858"
     style="fill:#2b6fab;fill-opacity:1" />
  <path
     d="M1058.709,27.996l-2.248-.205c-25.423-2.323-51.244-3.643-76.746-3.923l-.5-.005.006-.5c.077-6.979.108-9.857.186-11.08l-.824.048c-5.246.308-10.664.626-16.041-.252l.101,11.625-.507-.002c-1.153-.006-2.308-.005-3.461-.003h-.99c-27.287.004-55.071,1.284-82.58,3.806l-2.3.211,2.007-1.144c27.129-15.452,55.003-23.999,82.848-25.401,3.964-.082,7.9-.139,11.714-.172,29.593.633,58.989,9.335,87.385,25.865l1.95,1.135ZM980.227,22.873c24.606.283,49.507,1.534,74.057,3.717-27.636-15.708-56.192-23.98-84.916-24.595-3.795.033-7.727.091-11.672.172-26.98,1.359-54.007,9.475-80.359,24.128,26.778-2.385,53.799-3.596,80.348-3.599h.989c.987-.001,1.973-.002,2.96,0l-.103-11.813.594.107c5.454.984,10.773.672,16.399.341l3.602-.208-1.741.938c-.027.743-.075,3.365-.157,10.812Z"
     fill="#fff"
     stroke="#fff"
     stroke-miterlimit="10"
     id="path860"
     style="fill:#2b6fab;fill-opacity:1" />
  <path
     d="M971.611,150.981s0,.013,0,.037v-.038c2.12-.042,4.241-.092,6.362-.138.57-59.936.988-105.654,1.12-126.271-5.189-.189-10.378-.317-15.568-.336-.204-.004-.408-.005-.613-.009.349,20.357.882,66.271,1.503,126.626,2.398.043,4.797.09,7.194.128Z"
     fill="#fff"
     stroke="#fff"
     stroke-miterlimit="10"
     id="path862"
     style="fill:#2b6fab;fill-opacity:1" />
  <path
     d="M971.611,154.324s0-.118,0-.309v.308c-2.386.012-4.772.015-7.159.022.549,53.551,1.165,118.096,1.781,186.074,1.607.019,3.214.049,4.82.066h0c1.697-.019,3.394-.05,5.091-.071.656-67.961,1.284-132.492,1.795-186.046-2.109-.015-4.22-.025-6.328-.044Z"
     fill="#fff"
     stroke="#fff"
     stroke-miterlimit="10"
     id="path864"
     style="fill:#2b6fab;fill-opacity:1" />
  <path
     d="M971.054,532.614s0-3.345,0-3.345c1.099-.018,2.199-.041,3.298-.06.563-60.816,1.172-124.406,1.76-185.354-3.288-.025-6.55-.025-9.847.004.552,60.946,1.104,124.536,1.609,185.355,1.06.018,2.12.041,3.18.058,0-.002,0,3.341,0,3.341-1.05,0-2.102-.006-3.152-.008.319,38.548.62,75.936.889,110.778h4.533c.303-34.841.641-72.227.998-110.776-1.089.002-2.178.007-3.266.008Z"
     fill="#fff"
     stroke="#fff"
     stroke-miterlimit="10"
     id="path866"
     style="fill:#2b6fab;fill-opacity:1" />
  <path
     d="M979.093,24.572c0-.132.002-.262.003-.391-5.244-.552-10.492-.86-15.739-.891-.154-.006-.307-.006-.461-.012.005.311.011.626.017.95.204.004.408.005.613.009,5.189.018,10.379.147,15.568.336Z"
     fill="#fff"
     stroke="#fff"
     stroke-miterlimit="10"
     id="path868"
     style="fill:#2b6fab;fill-opacity:1" />
  <path
     d="M962.895,23.2c0,.026,0,.052.001.077.154.005.307.006.461.012,5.247.031,10.495.339,15.739.891.002-.278.003-.551.005-.819-5.401-.056-10.805-.124-16.206-.162Z"
     fill="#fff"
     stroke="#fff"
     stroke-miterlimit="10"
     id="path870"
     style="fill:#2b6fab;fill-opacity:1" />
  <path
     d="M969.385,12.144h-.04c.007,0,.013,0,.02,0,.007,0,.014,0,.021,0Z"
     fill="#fff"
     stroke="#fff"
     stroke-miterlimit="10"
     id="path872"
     style="fill:#2b6fab;fill-opacity:1" />
  <path
     d="M971.591,23.289c2.503.006,5.006.047,7.509.072.044-7.08.05-10.862.012-10.825-2.5-.184-5.067-.349-7.638-.391-.704.011-1.407.009-2.11-.001-2.274.034-4.539.187-6.752.555.07.208.165,3.858.282,10.501,2.898.016,5.797.045,8.696.089Z"
     fill="#fff"
     stroke="#fff"
     stroke-miterlimit="10"
     id="path874"
     style="fill:#2b6fab;fill-opacity:1" />
  <path
     d="M971.543,12.144h-.139c.024,0,.047.001.071.001.023,0,.046-.001.069-.001Z"
     fill="#fff"
     stroke="#fff"
     stroke-miterlimit="10"
     id="path876"
     style="fill:#2b6fab;fill-opacity:1" />
  <path
     d="M966.536,529.188c.186.003.372.007.557.01l-1.611-185.336c-.186.001-.371.002-.557.003.53,60.941,1.082,124.51,1.611,185.322Z"
     fill="#fff"
     stroke="#fff"
     stroke-miterlimit="10"
     id="path878"
     style="fill:#2b6fab;fill-opacity:1" />
  <path
     d="M975.014,529.196c.221-.004.442-.008.663-.012.494-60.816.991-124.387,1.463-185.325-.172-.001-.343-.002-.515-.003l-1.611,185.339Z"
     fill="#fff"
     stroke="#fff"
     stroke-miterlimit="10"
     id="path880"
     style="fill:#2b6fab;fill-opacity:1" />
  <path
     d="M974.985,532.604l-.963,110.777h.699c.303-34.855.615-72.241.929-110.779-.222,0-.443.001-.665.002Z"
     fill="#fff"
     stroke="#fff"
     stroke-miterlimit="10"
     id="path882"
     style="fill:#2b6fab;fill-opacity:1" />
  <path
     d="M966.565,532.601c.335,38.539.66,75.926.963,110.781h.557l-.963-110.779c-.186,0-.372,0-.557-.001Z"
     fill="#fff"
     stroke="#fff"
     stroke-miterlimit="10"
     id="path884"
     style="fill:#2b6fab;fill-opacity:1" />
  <path
     d="M965.452,340.409l-1.617-186.062c-.186,0-.371.001-.557.002.466,53.612,1.027,118.128,1.617,186.052.186.002.371.005.557.008Z"
     fill="#fff"
     stroke="#fff"
     stroke-miterlimit="10"
     id="path886"
     style="fill:#2b6fab;fill-opacity:1" />
  <path
     d="M962.704,24.224c-.186-.004-.371-.005-.557-.008.183,21.057.581,66.822,1.101,126.617.186.003.372.007.557.01l-1.101-126.618Z"
     fill="#fff"
     stroke="#fff"
     stroke-miterlimit="10"
     id="path888"
     style="fill:#2b6fab;fill-opacity:1" />
  <path
     d="M978.635,150.828c.468-59.557.845-105.162,1.072-126.235-.102-.004-.205-.007-.307-.011l-1.097,126.253c.111-.002.221-.005.332-.007Z"
     fill="#fff"
     stroke="#fff"
     stroke-miterlimit="10"
     id="path890"
     style="fill:#2b6fab;fill-opacity:1" />
  <path
     d="M977.167,340.4c.526-67.927,1.019-132.437,1.44-186.027-.112,0-.223-.002-.335-.002l-1.617,186.037c.171-.002.341-.005.512-.007Z"
     fill="#fff"
     stroke="#fff"
     stroke-miterlimit="10"
     id="path892"
     style="fill:#2b6fab;fill-opacity:1" />
  <path
     d="M962.695,23.272c-.186-.006-.371-.009-.557-.014.003.313.006.633.008.957.186.003.371.005.557.008l-.008-.952Z"
     fill="#fff"
     stroke="#fff"
     stroke-miterlimit="10"
     id="path894"
     style="fill:#2b6fab;fill-opacity:1" />
  <path
     d="M979.401,24.582c.102.004.205.007.307.011.001-.119.003-.237.004-.355-.103-.011-.205-.018-.308-.029l-.003.373Z"
     fill="#fff"
     stroke="#fff"
     stroke-miterlimit="10"
     id="path896"
     style="fill:#2b6fab;fill-opacity:1" />
  <path
     d="M962.695,23.272v-.072c-.186,0-.372,0-.558,0,0,.02,0,.039,0,.059.186.005.371.008.557.014Z"
     fill="#fff"
     stroke="#fff"
     stroke-miterlimit="10"
     id="path898"
     style="fill:#2b6fab;fill-opacity:1" />
  <path
     d="M979.404,24.209c.103.011.205.018.308.029.003-.295.006-.586.01-.871-.103-.001-.207-.002-.31-.003l-.007.845Z"
     fill="#fff"
     stroke="#fff"
     stroke-miterlimit="10"
     id="path900"
     style="fill:#2b6fab;fill-opacity:1" />
  <path
     d="M962.603,12.7s-.003,0-.005,0c.001-.006.003-.001.005-.004l-.005-.553h6.747c-2.433-.038-4.864-.215-7.31-.661,0,.062.036,4.158.102,11.716.186,0,.371,0,.557,0l-.091-10.499Z"
     fill="#fff"
     stroke="#fff"
     stroke-miterlimit="10"
     id="path902"
     style="fill:#2b6fab;fill-opacity:1" />
  <path
     d="M962.599,12.701s.003,0,.005,0v-.003s-.003-.002-.005.004Z"
     fill="#fff"
     stroke="#fff"
     stroke-miterlimit="10"
     id="path904"
     style="fill:#2b6fab;fill-opacity:1" />
  <path
     d="M979.411,23.364c.103.001.207.002.31.003.083-7.532.145-11.595.183-11.615-2.815.164-5.593.347-8.361.392h7.966l-.098,11.22Z"
     fill="#fff"
     stroke="#fff"
     stroke-miterlimit="10"
     id="path906"
     style="fill:#2b6fab;fill-opacity:1" />
  <path
     d="M977.973,150.842c.11-.002.22-.005.33-.007l1.097-126.253c-.103-.004-.205-.007-.308-.011-.132,20.616-.55,66.334-1.12,126.271Z"
     fill="#fff"
     stroke="#fff"
     stroke-miterlimit="10"
     id="path908"
     style="fill:#2b6fab;fill-opacity:1" />
  <path
     d="M966.233,340.419c-.617-67.978-1.232-132.523-1.781-186.074-.206,0-.412.001-.617.002l1.617,186.062c.26.003.521.008.781.011Z"
     fill="#fff"
     stroke="#fff"
     stroke-miterlimit="10"
     id="path910"
     style="fill:#2b6fab;fill-opacity:1" />
  <path
     d="M974.32,532.606c-.357,38.548-.695,75.935-.998,110.776h.699l.963-110.777c-.221,0-.443.001-.664.002Z"
     fill="#fff"
     stroke="#fff"
     stroke-miterlimit="10"
     id="path912"
     style="fill:#2b6fab;fill-opacity:1" />
  <path
     d="M967.123,532.602l.963,110.779h.704c-.269-34.842-.569-72.229-.889-110.778-.26,0-.519-.001-.779-.002Z"
     fill="#fff"
     stroke="#fff"
     stroke-miterlimit="10"
     id="path914"
     style="fill:#2b6fab;fill-opacity:1" />
  <path
     d="M976.145,340.414c.17-.002.34-.005.511-.007l1.617-186.037c-.111,0-.222-.001-.333-.002-.51,53.555-1.139,118.086-1.795,186.046Z"
     fill="#fff"
     stroke="#fff"
     stroke-miterlimit="10"
     id="path916"
     style="fill:#2b6fab;fill-opacity:1" />
  <path
     d="M976.625,343.857c-.171-.001-.343-.001-.514-.003-.588,60.948-1.196,124.538-1.76,185.354.221-.004.442-.008.662-.012l1.611-185.339Z"
     fill="#fff"
     stroke="#fff"
     stroke-miterlimit="10"
     id="path918"
     style="fill:#2b6fab;fill-opacity:1" />
  <path
     d="M967.093,529.199c.26.005.52.01.78.014-.505-60.818-1.057-124.409-1.609-185.355-.261.002-.521.003-.782.005l1.611,185.336Z"
     fill="#fff"
     stroke="#fff"
     stroke-miterlimit="10"
     id="path920"
     style="fill:#2b6fab;fill-opacity:1" />
  <path
     d="M962.913,24.227c-.07-.001-.139-.002-.209-.003l1.101,126.618c.204.004.408.007.612.011-.621-60.355-1.154-106.269-1.503-126.626Z"
     fill="#fff"
     stroke="#fff"
     stroke-miterlimit="10"
     id="path922"
     style="fill:#2b6fab;fill-opacity:1" />
  <path
     d="M962.913,24.227c-.006-.324-.011-.639-.017-.95-.067-.002-.134-.003-.201-.005l.008.952c.07.001.139.002.209.003Z"
     fill="#fff"
     stroke="#fff"
     stroke-miterlimit="10"
     id="path924"
     style="fill:#2b6fab;fill-opacity:1" />
  <path
     d="M979.093,24.572c.102.004.205.007.308.011l.003-.373c-.103-.011-.206-.018-.308-.029,0,.13-.002.26-.003.391Z"
     fill="#fff"
     stroke="#fff"
     stroke-miterlimit="10"
     id="path926"
     style="fill:#2b6fab;fill-opacity:1" />
  <path
     d="M962.895,23.2c-.067,0-.134,0-.2,0v.072c.068.002.135.003.202.005,0-.026,0-.052-.001-.077Z"
     fill="#fff"
     stroke="#fff"
     stroke-miterlimit="10"
     id="path928"
     style="fill:#2b6fab;fill-opacity:1" />
  <path
     d="M979.404,24.209l.007-.845c-.104-.001-.207-.002-.311-.003-.002.268-.003.541-.005.819.103.011.206.018.308.029Z"
     fill="#fff"
     stroke="#fff"
     stroke-miterlimit="10"
     id="path930"
     style="fill:#2b6fab;fill-opacity:1" />
  <path
     d="M962.603,12.697v.003s.006,0,.009-.001c-.003-.01-.006-.007-.009-.002Z"
     fill="#fff"
     stroke="#fff"
     stroke-miterlimit="10"
     id="path932"
     style="fill:#2b6fab;fill-opacity:1" />
  <path
     d="M962.613,12.699s-.006,0-.009.001l.091,10.499c.067,0,.133,0,.2,0-.117-6.643-.212-10.293-.282-10.501Z"
     fill="#fff"
     stroke="#fff"
     stroke-miterlimit="10"
     id="path934"
     style="fill:#2b6fab;fill-opacity:1" />
  <path
     d="M962.603,12.697s.006-.008.009.002c2.213-.368,4.478-.521,6.752-.555-.01,0-6.752,0-6.766,0l.005.553Z"
     fill="#fff"
     stroke="#fff"
     stroke-miterlimit="10"
     id="path936"
     style="fill:#2b6fab;fill-opacity:1" />
  <path
     d="M979.113,12.536c.037-.038.031,3.745-.012,10.825.104.001.207.002.311.003l.098-11.22h-7.966c-.023,0-.046.001-.069.001,2.572.041,5.138.207,7.638.391Z"
     fill="#fff"
     stroke="#fff"
     stroke-miterlimit="10"
     id="path938"
     style="fill:#2b6fab;fill-opacity:1" />
  <path
     d="M971.475,12.146c-.704-.013-1.407-.011-2.11-.001.703.011,1.406.012,2.11.001Z"
     fill="#fff"
     stroke="#fff"
     stroke-miterlimit="10"
     id="path940"
     style="fill:#2b6fab;fill-opacity:1" />
  <path
     d="M963.278,154.348c-.01-1.177-.02-2.35-.031-3.516-63.264-1.154-126.709-3.982-189.81-9.884-1.725,2.341-3.443,4.71-5.153,7.115,64.882,4.861,130.053,6.455,194.994,6.285Z"
     fill="#fff"
     stroke="#fff"
     stroke-miterlimit="10"
     id="path942"
     style="fill:#2b6fab;fill-opacity:1" />
  <path
     d="M634.68,122.324c-21.894-3.932-43.698-8.373-65.388-13.379-5.882,2.7-11.733,5.463-17.556,8.282,23.876,5.291,47.873,9.899,71.969,13.872,3.64-2.973,7.297-5.901,10.974-8.775Z"
     fill="#fff"
     stroke="#fff"
     stroke-miterlimit="10"
     id="path944"
     style="fill:#2b6fab;fill-opacity:1" />
  <path
     d="M756.506,147.149c1.62-2.487,3.248-4.943,4.883-7.368-35.45-3.541-70.779-8.083-105.896-13.871-3.832,2.742-7.646,5.535-11.44,8.38,37.308,5.609,74.825,9.806,112.453,12.86Z"
     fill="#fff"
     stroke="#fff"
     stroke-miterlimit="10"
     id="path946"
     style="fill:#2b6fab;fill-opacity:1" />
  <path
     d="M773.437,140.949c-4.017-.376-8.033-.767-12.048-1.168-1.635,2.426-3.263,4.881-4.883,7.368,3.925.318,7.851.62,11.777.914,1.71-2.405,3.428-4.774,5.153-7.115Z"
     fill="#fff"
     stroke="#fff"
     stroke-miterlimit="10"
     id="path948"
     style="fill:#2b6fab;fill-opacity:1" />
  <path
     d="M655.493,125.91c-6.947-1.145-13.884-2.342-20.813-3.586-3.677,2.874-7.334,5.802-10.974,8.775,6.774,1.117,13.558,2.17,20.347,3.191,3.795-2.844,7.608-5.638,11.44-8.38Z"
     fill="#fff"
     stroke="#fff"
     stroke-miterlimit="10"
     id="path950"
     style="fill:#2b6fab;fill-opacity:1" />
  <path
     d="M547.724,103.785s-2.961,11.894-2.961,11.895c2.322.528,4.649,1.033,6.973,1.548,5.823-2.819,11.674-5.582,17.556-8.282-7.201-1.662-14.393-3.371-21.568-5.16Z"
     fill="#fff"
     stroke="#fff"
     stroke-miterlimit="10"
     id="path952"
     style="fill:#2b6fab;fill-opacity:1" />
  <path
     d="M971.611,154.015c0-.913,0-2.13,0-3.034-2.398-.038-4.796-.085-7.194-.128.012,1.158.024,2.323.036,3.492,2.386-.007,4.773-.01,7.159-.022v-.308Z"
     fill="#fff"
     stroke="#fff"
     stroke-miterlimit="10"
     id="path954"
     style="fill:#2b6fab;fill-opacity:1" />
  <path
     d="M963.835,154.347l-.03-3.505c-.186-.003-.371-.007-.557-.01.01,1.167.02,2.339.031,3.516.186,0,.371-.001.557-.002Z"
     fill="#fff"
     stroke="#fff"
     stroke-miterlimit="10"
     id="path956"
     style="fill:#2b6fab;fill-opacity:1" />
  <path
     d="M964.416,150.853c-.204-.004-.408-.007-.612-.011l.03,3.505c.206,0,.412-.001.617-.002-.012-1.169-.024-2.333-.036-3.492Z"
     fill="#fff"
     stroke="#fff"
     stroke-miterlimit="10"
     id="path958"
     style="fill:#2b6fab;fill-opacity:1" />
  <path
     d="M1173.102,148.993c37.109-2.599,74.129-6.273,110.965-11.279-4.639-3.468-9.3-6.873-13.993-10.189-34.006,5.337-68.202,9.55-102.503,12.855,1.852,2.826,3.695,5.698,5.531,8.613Z"
     fill="#fff"
     stroke="#fff"
     stroke-miterlimit="10"
     id="path960"
     style="fill:#2b6fab;fill-opacity:1" />
  <path
     d="M1310.381,133.9c26.711-4.117,53.312-8.983,79.767-14.7-7.443-3.567-14.93-7.044-22.465-10.42-23.368,5.374-46.87,10.089-70.475,14.235,4.413,3.55,8.805,7.175,13.173,10.886Z"
     fill="#fff"
     stroke="#fff"
     stroke-miterlimit="10"
     id="path962"
     style="fill:#2b6fab;fill-opacity:1" />
  <path
     d="M1158.097,149.983c-1.985-2.765-3.979-5.496-5.984-8.175-57.704,5.107-115.665,7.762-173.477,9.02-.009,1.176-.019,2.358-.028,3.545,59.758.411,119.721-.66,179.489-4.39Z"
     fill="#fff"
     stroke="#fff"
     stroke-miterlimit="10"
     id="path964"
     style="fill:#2b6fab;fill-opacity:1" />
  <path
     d="M1173.102,148.993c-1.836-2.915-3.679-5.787-5.531-8.613-5.151.496-10.304.971-15.459,1.427,2.005,2.679,3.999,5.41,5.984,8.175,5.003-.312,10.005-.639,15.006-.989Z"
     fill="#fff"
     stroke="#fff"
     stroke-miterlimit="10"
     id="path966"
     style="fill:#2b6fab;fill-opacity:1" />
  <path
     d="M1310.381,133.9c-4.368-3.71-8.76-7.335-13.173-10.886-9.03,1.586-18.075,3.089-27.134,4.511,4.693,3.316,9.354,6.721,13.993,10.189,8.782-1.194,17.553-2.464,26.313-3.814Z"
     fill="#fff"
     stroke="#fff"
     stroke-miterlimit="10"
     id="path968"
     style="fill:#2b6fab;fill-opacity:1" />
  <path
     d="M1398.862,117.301s-3.769-15.138-3.769-15.137c-9.115,2.311-18.253,4.511-27.411,6.617,7.535,3.376,15.022,6.853,22.465,10.42,2.906-.628,5.812-1.251,8.715-1.899Z"
     fill="#fff"
     stroke="#fff"
     stroke-miterlimit="10"
     id="path970"
     style="fill:#2b6fab;fill-opacity:1" />
  <path
     d="M971.611,151.018c0,.978,0,2.336,0,3.305,2.109.019,4.219.029,6.328.044.011-1.18.022-2.356.034-3.526-2.121.046-4.242.096-6.362.138v.038Z"
     fill="#fff"
     stroke="#fff"
     stroke-miterlimit="10"
     id="path972"
     style="fill:#2b6fab;fill-opacity:1" />
  <path
     d="M978.272,154.37c.112,0,.223.002.335.002.009-1.187.019-2.369.028-3.545-.111.002-.221.005-.332.007l-.031,3.535Z"
     fill="#fff"
     stroke="#fff"
     stroke-miterlimit="10"
     id="path974"
     style="fill:#2b6fab;fill-opacity:1" />
  <path
     d="M978.272,154.37l.031-3.535c-.11.002-.22.005-.33.007-.011,1.17-.022,2.345-.034,3.526.111,0,.222.001.333.002Z"
     fill="#fff"
     stroke="#fff"
     stroke-miterlimit="10"
     id="path976"
     style="fill:#2b6fab;fill-opacity:1" />
  <path
     d="M964.925,343.866c-.01-1.156-.02-2.311-.03-3.465-95.436-1.193-190.844-6.719-285.611-18.219-1.083,2.904-2.157,5.831-3.224,8.772,103.937,10.528,207.838,13.358,288.865,12.912Z"
     fill="#fff"
     stroke="#fff"
     stroke-miterlimit="10"
     id="path978"
     style="fill:#2b6fab;fill-opacity:1" />
  <path
     d="M482.204,286.872c-42.948-10.735-85.112-24.355-124.55-43.903-4.27,3.603-8.506,7.245-12.708,10.927,37.076,18.008,81.32,32.583,129.622,44.326,2.524-3.818,5.07-7.601,7.636-11.35Z"
     fill="#fff"
     stroke="#fff"
     stroke-miterlimit="10"
     id="path980"
     style="fill:#2b6fab;fill-opacity:1" />
  <path
     d="M673.746,321.494c-60.916-7.526-121.076-17.873-180.925-32.027-2.695,3.695-5.367,7.424-8.017,11.187,58.282,13.539,122.002,23.118,185.876,29.753,1.014-2.991,2.037-5.96,3.066-8.912Z"
     fill="#fff"
     stroke="#fff"
     stroke-miterlimit="10"
     id="path982"
     style="fill:#2b6fab;fill-opacity:1" />
  <path
     d="M679.284,322.182c-1.846-.225-3.692-.458-5.538-.688-1.029,2.952-2.052,5.921-3.066,8.912,1.793.186,3.586.366,5.379.547,1.067-2.941,2.141-5.868,3.224-8.772Z"
     fill="#fff"
     stroke="#fff"
     stroke-miterlimit="10"
     id="path984"
     style="fill:#2b6fab;fill-opacity:1" />
  <path
     d="M492.821,289.468c-3.544-.846-7.083-1.713-10.617-2.596-2.566,3.748-5.112,7.531-7.636,11.35,3.392.825,6.804,1.636,10.236,2.433,2.65-3.763,5.323-7.491,8.017-11.187Z"
     fill="#fff"
     stroke="#fff"
     stroke-miterlimit="10"
     id="path986"
     style="fill:#2b6fab;fill-opacity:1" />
  <path
     d="M347.641,237.862s-7.463,13.699-7.463,13.701c1.569.788,3.173,1.558,4.769,2.333,4.202-3.681,8.438-7.324,12.708-10.927-3.356-1.663-6.698-3.356-10.014-5.107Z"
     fill="#fff"
     stroke="#fff"
     stroke-miterlimit="10"
     id="path988"
     style="fill:#2b6fab;fill-opacity:1" />
  <path
     d="M971.054,340.486c-1.607-.017-3.214-.047-4.82-.066.01,1.145.021,2.292.031,3.439,1.599-.01,3.209-.017,4.789-.03v-3.343Z"
     fill="#fff"
     stroke="#fff"
     stroke-miterlimit="10"
     id="path990"
     style="fill:#2b6fab;fill-opacity:1" />
  <path
     d="M964.925,343.866c.187-.001.371-.002.557-.003l-.03-3.454c-.186-.002-.372-.005-.557-.008.01,1.154.02,2.31.03,3.465Z"
     fill="#fff"
     stroke="#fff"
     stroke-miterlimit="10"
     id="path992"
     style="fill:#2b6fab;fill-opacity:1" />
  <path
     d="M965.452,340.409l.03,3.454c.262-.001.521-.003.782-.005-.01-1.147-.021-2.294-.031-3.439-.26-.003-.521-.008-.781-.011Z"
     fill="#fff"
     stroke="#fff"
     stroke-miterlimit="10"
     id="path994"
     style="fill:#2b6fab;fill-opacity:1" />
  <path
     d="M977.167,340.4c-.009,1.152-.018,2.306-.027,3.46,91.263.609,182.624-2.729,273.495-11.452-1.022-2.819-2.048-5.629-3.085-8.413-89.758,10.267-180.07,15.279-270.383,16.405Z"
     fill="#fff"
     stroke="#fff"
     stroke-miterlimit="10"
     id="path996"
     style="fill:#2b6fab;fill-opacity:1" />
  <path
     d="M1253.932,323.244c.979,2.832,1.953,5.672,2.917,8.535,62.58-6.165,124.776-15.196,186.373-28.127-2.591-3.686-5.204-7.338-7.838-10.957-60.016,13.587-120.422,23.396-181.451,30.549Z"
     fill="#fff"
     stroke="#fff"
     stroke-miterlimit="10"
     id="path998"
     style="fill:#2b6fab;fill-opacity:1" />
  <path
     d="M1448.168,290.636c2.33,3.456,4.64,6.94,6.932,10.45,48.682-10.776,96.532-24.935,141.544-46.913-4.233-3.674-8.501-7.307-12.803-10.899-43.009,21.235-89.247,35.454-136.197,46.587.174.259.35.515.524.775Z"
     fill="#fff"
     stroke="#fff"
     stroke-miterlimit="10"
     id="path1000"
     style="fill:#2b6fab;fill-opacity:1" />
  <path
     d="M1256.849,331.778c-.964-2.863-1.938-5.703-2.917-8.535-2.127.251-4.254.506-6.382.751,1.037,2.783,2.063,5.594,3.085,8.413,2.072-.2,4.142-.423,6.214-.629Z"
     fill="#fff"
     stroke="#fff"
     stroke-miterlimit="10"
     id="path1002"
     style="fill:#2b6fab;fill-opacity:1" />
  <path
     d="M1443.221,303.651c3.964-.833,7.923-1.69,11.878-2.565-2.464-3.774-4.943-7.511-7.456-11.225-4.082.968-8.169,1.909-12.26,2.833,2.634,3.619,5.247,7.271,7.838,10.957Z"
     fill="#fff"
     stroke="#fff"
     stroke-miterlimit="10"
     id="path1004"
     style="fill:#2b6fab;fill-opacity:1" />
  <path
     d="M1601.93,251.561s-7.463-13.699-7.463-13.698c-3.517,1.858-7.064,3.652-10.627,5.411,4.301,3.592,8.569,7.225,12.803,10.899,1.766-.862,3.531-1.726,5.287-2.612Z"
     fill="#fff"
     stroke="#fff"
     stroke-miterlimit="10"
     id="path1006"
     style="fill:#2b6fab;fill-opacity:1" />
  <path
     d="M971.054,340.486v3.343c1.686.014,3.372.015,5.058.026.011-1.148.022-2.295.033-3.44-1.697.021-3.394.053-5.091.072Z"
     fill="#fff"
     stroke="#fff"
     stroke-miterlimit="10"
     id="path1008"
     style="fill:#2b6fab;fill-opacity:1" />
  <path
     d="M976.655,340.407l-.03,3.45c.172.001.343.002.515.003.009-1.154.018-2.308.027-3.46-.171.002-.341.005-.512.007Z"
     fill="#fff"
     stroke="#fff"
     stroke-miterlimit="10"
     id="path1010"
     style="fill:#2b6fab;fill-opacity:1" />
  <path
     d="M976.655,340.407c-.17.002-.34.005-.511.007-.011,1.146-.022,2.293-.033,3.44.171.001.343.001.514.003l.03-3.45Z"
     fill="#fff"
     stroke="#fff"
     stroke-miterlimit="10"
     id="path1012"
     style="fill:#2b6fab;fill-opacity:1" />
  <path
     d="M340.256,611.804c-69.82-23.108-137.728-51.624-202.585-86.878-2.246,4.679-4.449,9.383-6.609,14.114,66.132,34.248,135.231,62.16,206.265,84.714.96-4.001,1.936-7.985,2.93-11.95Z"
     fill="#fff"
     stroke="#fff"
     stroke-miterlimit="10"
     id="path1014"
     style="fill:#2b6fab;fill-opacity:1" />
  <path
     d="M342.692,612.601c-1.045,3.953-2.071,7.916-3.077,11.884,21.47,6.778,43.116,13.068,64.909,18.897h44.958c-35.981-9.009-71.626-19.212-106.791-30.78Z"
     fill="#fff"
     stroke="#fff"
     stroke-miterlimit="10"
     id="path1016"
     style="fill:#2b6fab;fill-opacity:1" />
  <path
     d="M337.326,623.754c.763.242,1.525.49,2.289.731,1.005-3.967,2.031-7.931,3.077-11.884-.811-.267-1.625-.529-2.435-.797-.994,3.966-1.97,7.949-2.93,11.95Z"
     fill="#fff"
     stroke="#fff"
     stroke-miterlimit="10"
     id="path1018"
     style="fill:#2b6fab;fill-opacity:1" />
  <path
     d="M136.734,524.421s-7.517,13.67-7.518,13.673c.614.319,1.232.629,1.846.947,2.16-4.731,4.364-9.435,6.609-14.114-.312-.17-.626-.335-.937-.505Z"
     fill="#fff"
     stroke="#fff"
     stroke-miterlimit="10"
     id="path1020"
     style="fill:#2b6fab;fill-opacity:1" />
  <path
     d="M1584.391,611.221c-36.33,12.048-73.097,22.729-110.201,32.16h44.691c23.1-6.158,46.025-12.83,68.736-20.058-1.056-4.045-2.129-8.081-3.226-12.102Z"
     fill="#fff"
     stroke="#fff"
     stroke-miterlimit="10"
     id="path1022"
     style="fill:#2b6fab;fill-opacity:1" />
  <path
     d="M1586.551,610.503c.994,4.064,1.972,8.136,2.922,12.222,75.744-24.218,149.091-54.584,218.558-92.323-2.254-4.681-4.543-9.345-6.883-13.983-67.511,39.451-140.572,69.352-214.596,94.083Z"
     fill="#fff"
     stroke="#fff"
     stroke-miterlimit="10"
     id="path1024"
     style="fill:#2b6fab;fill-opacity:1" />
  <path
     d="M1584.391,611.221c1.097,4.021,2.171,8.057,3.226,12.102.619-.197,1.236-.4,1.855-.598-.95-4.086-1.928-8.158-2.922-12.222-.72.24-1.44.48-2.16.718Z"
     fill="#fff"
     stroke="#fff"
     stroke-miterlimit="10"
     id="path1026"
     style="fill:#2b6fab;fill-opacity:1" />
  <path
     d="M1809.524,529.6l-7.789-13.516c-.195.114-.393.223-.588.336,2.34,4.638,4.63,9.302,6.883,13.983.497-.27.998-.532,1.494-.803Z"
     fill="#fff"
     stroke="#fff"
     stroke-miterlimit="10"
     id="path1028"
     style="fill:#2b6fab;fill-opacity:1" />
  <path
     d="M627.973,501.588c-.608,2.866-1.209,5.741-1.804,8.627,112.761,16,227.175,22.166,340.396,22.385-.01-1.136-.02-2.274-.03-3.412-112.659-2.001-226.516-9.918-338.563-27.6Z"
     fill="#fff"
     stroke="#fff"
     stroke-miterlimit="10"
     id="path1030"
     style="fill:#2b6fab;fill-opacity:1" />
  <path
     d="M394.622,448.23c-58.022-17.937-114.904-39.482-170.184-65.228-3.195,4.215-6.356,8.459-9.474,12.737,56.858,25.579,115.276,46.765,174.791,64.194,1.605-3.923,3.225-7.827,4.868-11.703Z"
     fill="#fff"
     stroke="#fff"
     stroke-miterlimit="10"
     id="path1032"
     style="fill:#2b6fab;fill-opacity:1" />
  <path
     d="M400.053,449.904c-1.727,3.826-3.429,7.677-5.115,11.545,74.932,21.647,151.577,37.372,229.011,48.451.562-2.905,1.131-5.796,1.705-8.678-76.371-12.147-151.889-28.844-225.601-51.318Z"
     fill="#fff"
     stroke="#fff"
     stroke-miterlimit="10"
     id="path1034"
     style="fill:#2b6fab;fill-opacity:1" />
  <path
     d="M627.973,501.588c-.773-.122-1.546-.243-2.319-.366-.574,2.882-1.143,5.773-1.705,8.678.74.106,1.48.211,2.22.316.594-2.886,1.196-5.762,1.804-8.627Z"
     fill="#fff"
     stroke="#fff"
     stroke-miterlimit="10"
     id="path1036"
     style="fill:#2b6fab;fill-opacity:1" />
  <path
     d="M400.053,449.904c-1.812-.552-3.621-1.114-5.431-1.674-1.642,3.876-3.262,7.78-4.868,11.703,1.728.506,3.454,1.017,5.183,1.516,1.686-3.868,3.389-7.72,5.115-11.545Z"
     fill="#fff"
     stroke="#fff"
     stroke-miterlimit="10"
     id="path1038"
     style="fill:#2b6fab;fill-opacity:1" />
  <path
     d="M218.563,380.264s-6.772,14.054-6.772,14.056c1.056.479,2.116.944,3.173,1.42,3.118-4.278,6.279-8.521,9.474-12.737-1.958-.912-3.92-1.816-5.875-2.739Z"
     fill="#fff"
     stroke="#fff"
     stroke-miterlimit="10"
     id="path1040"
     style="fill:#2b6fab;fill-opacity:1" />
  <path
     d="M971.054,532.612s0-3.343,0-3.341c-1.06-.017-2.12-.04-3.18-.058.009,1.131.019,2.262.028,3.391,1.051.002,2.102.007,3.152.008Z"
     fill="#fff"
     stroke="#fff"
     stroke-miterlimit="10"
     id="path1042"
     style="fill:#2b6fab;fill-opacity:1" />
  <path
     d="M966.536,529.188c.01,1.138.02,2.276.03,3.412.186,0,.372.001.557.001l-.03-3.403c-.186-.003-.372-.007-.557-.01Z"
     fill="#fff"
     stroke="#fff"
     stroke-miterlimit="10"
     id="path1044"
     style="fill:#2b6fab;fill-opacity:1" />
  <path
     d="M967.123,532.602c.26,0,.519.002.779.002-.009-1.129-.019-2.26-.028-3.391-.26-.005-.52-.01-.78-.014l.03,3.403Z"
     fill="#fff"
     stroke="#fff"
     stroke-miterlimit="10"
     id="path1046"
     style="fill:#2b6fab;fill-opacity:1" />
  <path
     d="M1539.353,463.676c63.955-18.098,126.689-40.463,187.633-67.87-3.115-4.279-6.271-8.522-9.462-12.734-59.317,27.617-120.481,50.401-182.917,69.078,1.601,3.826,3.186,7.665,4.746,11.526Z"
     fill="#fff"
     stroke="#fff"
     stroke-miterlimit="10"
     id="path1048"
     style="fill:#2b6fab;fill-opacity:1" />
  <path
     d="M1301.767,503.499c.552,2.809,1.093,5.631,1.632,8.455,77.642-10.508,154.55-25.602,229.799-46.55-1.659-3.8-3.339-7.58-5.037-11.343-74.032,21.783-149.816,37.854-226.393,49.438Z"
     fill="#fff"
     stroke="#fff"
     stroke-miterlimit="10"
     id="path1050"
     style="fill:#2b6fab;fill-opacity:1" />
  <path
     d="M975.649,532.602c108.143-.214,217.368-5.851,325.202-20.302-.586-2.807-1.181-5.602-1.779-8.393-107.147,16.057-215.82,23.364-323.394,25.277-.009,1.14-.019,2.28-.028,3.418Z"
     fill="#fff"
     stroke="#fff"
     stroke-miterlimit="10"
     id="path1052"
     style="fill:#2b6fab;fill-opacity:1" />
  <path
     d="M1299.071,503.907c.598,2.791,1.194,5.586,1.779,8.393.85-.114,1.699-.231,2.548-.346-.539-2.824-1.08-5.646-1.632-8.455-.899.136-1.797.274-2.696.408Z"
     fill="#fff"
     stroke="#fff"
     stroke-miterlimit="10"
     id="path1054"
     style="fill:#2b6fab;fill-opacity:1" />
  <path
     d="M1533.198,465.404c2.053-.571,4.105-1.147,6.155-1.728-1.56-3.861-3.145-7.7-4.746-11.526-2.147.642-4.296,1.278-6.447,1.911,1.699,3.763,3.379,7.543,5.037,11.343Z"
     fill="#fff"
     stroke="#fff"
     stroke-miterlimit="10"
     id="path1056"
     style="fill:#2b6fab;fill-opacity:1" />
  <path
     d="M1730.315,394.317s-6.772-14.054-6.771-14.051c-2.003.946-4.013,1.872-6.02,2.806,3.192,4.212,6.348,8.455,9.462,12.734,1.109-.499,2.221-.987,3.329-1.489Z"
     fill="#fff"
     stroke="#fff"
     stroke-miterlimit="10"
     id="path1058"
     style="fill:#2b6fab;fill-opacity:1" />
  <path
     d="M971.054,529.269s0,3.343,0,3.345c1.088,0,2.178-.006,3.266-.008.01-1.131.021-2.264.031-3.397-1.099.019-2.199.042-3.298.06Z"
     fill="#fff"
     stroke="#fff"
     stroke-miterlimit="10"
     id="path1060"
     style="fill:#2b6fab;fill-opacity:1" />
  <path
     d="M975.014,529.196l-.03,3.408c.222,0,.443-.001.665-.002.009-1.138.019-2.278.028-3.418-.221.004-.442.008-.663.012Z"
     fill="#fff"
     stroke="#fff"
     stroke-miterlimit="10"
     id="path1062"
     style="fill:#2b6fab;fill-opacity:1" />
  <path
     d="M974.352,529.209c-.011,1.133-.021,2.266-.031,3.397.221,0,.443-.001.664-.002l.03-3.408c-.221.004-.442.008-.662.012Z"
     fill="#fff"
     stroke="#fff"
     stroke-miterlimit="10"
     id="path1064"
     style="fill:#2b6fab;fill-opacity:1" />
  <path
     d="M.25,715.375h86.468v373.627H.25v-373.627Z"
     fill="#fff"
     stroke="#fff"
     stroke-miterlimit="10"
     stroke-width=".5"
     id="path1066"
     style="fill:#2b6fab;fill-opacity:1" />
  <path
     d="M496.632,715.375v373.627h-70.989l-186.28-226.845v226.845h-85.4v-373.627h71.523l185.746,226.845v-226.845h85.4Z"
     fill="#fff"
     stroke="#fff"
     stroke-miterlimit="10"
     stroke-width=".5"
     id="path1068"
     style="fill:#2b6fab;fill-opacity:1" />
  <path
     d="M540.393,902.189c0-112.622,86.468-193.218,202.826-193.218,64.584,0,118.493,23.484,153.721,66.185l-55.51,51.24c-25.086-28.822-56.578-43.768-93.94-43.768-69.921,0-119.561,49.105-119.561,119.561s49.639,119.561,119.561,119.561c37.363,0,68.854-14.945,93.94-44.302l55.51,51.24c-35.228,43.234-89.136,66.72-154.254,66.72-115.824,0-202.292-80.597-202.292-193.219Z"
     fill="#fff"
     stroke="#fff"
     stroke-miterlimit="10"
     stroke-width=".5"
     id="path1070"
     style="fill:#2b6fab;fill-opacity:1" />
  <path
     d="M902.266,902.189c0-111.021,86.468-193.218,204.427-193.218s204.427,81.664,204.427,193.218-87.001,193.219-204.427,193.219-204.427-82.198-204.427-193.219ZM1223.584,902.189c0-70.989-50.173-119.561-116.892-119.561s-116.892,48.571-116.892,119.561,50.173,119.561,116.892,119.561,116.892-48.571,116.892-119.561Z"
     fill="#fff"
     stroke="#fff"
     stroke-miterlimit="10"
     stroke-width=".5"
     id="path1072"
     style="fill:#2b6fab;fill-opacity:1" />
  <path
     d="M1325.521,1052.173l29.356-65.117c31.491,22.951,78.461,38.964,123.297,38.964,51.24,0,72.057-17.08,72.057-40.032,0-69.921-217.237-21.884-217.237-160.659,0-63.517,51.24-116.357,157.457-116.357,46.97,0,95.008,11.208,129.701,33.092l-26.688,65.652c-34.693-19.749-70.455-29.356-103.548-29.356-51.24,0-70.989,19.215-70.989,42.7,0,68.854,217.237,21.35,217.237,158.524,0,62.448-51.773,115.824-158.524,115.824-59.246,0-119.026-17.614-152.119-43.234Z"
     fill="#fff"
     stroke="#fff"
     stroke-miterlimit="10"
     stroke-width=".5"
     id="path1074"
     style="fill:#2b6fab;fill-opacity:1" />
  <path
     d="M1963.344,1019.614v69.388h-289.294v-373.627h282.354v69.388h-196.421v81.131h173.47v67.253h-173.47v86.468h203.36Z"
     fill="#fff"
     stroke="#fff"
     stroke-miterlimit="10"
     stroke-width=".5"
     id="path1076"
     style="fill:#2b6fab;fill-opacity:1" />
</svg>
